<?xml version="1.0" encoding="UTF-8" standalone="no"?><!-- Generator: Gravit.io --><svg xmlns="http://www.w3.org/2000/svg" xmlns:xlink="http://www.w3.org/1999/xlink" style="isolation:isolate" viewBox="-1645.151 -2418.227 852.852 852.852" width="852.852pt" height="852.852pt"><defs><clipPath id="_clipPath_HiNpETqVs1fdpWSNySK7VYi6ZH01YzL4"><rect x="-1645.151" y="-2418.227" width="852.852" height="852.852"/></clipPath></defs><g clip-path="url(#_clipPath_HiNpETqVs1fdpWSNySK7VYi6ZH01YzL4)"><rect x="-1645.151" y="-2418.227" width="852.852" height="852.852" style="fill:rgb(0,0,0)" fill-opacity="0"/><defs><filter id="lWI0IhZDnFS2I4ZhkvkkxiLNlUR9cYsw" x="-200%" y="-200%" width="400%" height="400%" filterUnits="objectBoundingBox" color-interpolation-filters="sRGB"><feGaussianBlur xmlns="http://www.w3.org/2000/svg" stdDeviation="21.46804531419514"/></filter></defs><g filter="url(#lWI0IhZDnFS2I4ZhkvkkxiLNlUR9cYsw)"><path d="M -1483.109 -2418.23 L -954.341 -2418.23 C -864.908 -2418.23 -792.3 -2345.622 -792.3 -2256.188 L -792.3 -1727.421 C -792.3 -1637.988 -864.908 -1565.38 -954.341 -1565.38 L -1483.109 -1565.38 C -1572.542 -1565.38 -1645.15 -1637.988 -1645.15 -1727.421 L -1645.15 -2256.188 C -1645.15 -2345.622 -1572.542 -2418.23 -1483.109 -2418.23 Z" style="stroke:none;fill:#FF9F1C;stroke-miterlimit:10;"/></g><defs><filter id="sitYZGNKAFhR2y4Q4fjyHcTiGwrPqSMA" x="-200%" y="-200%" width="400%" height="400%" filterUnits="objectBoundingBox" color-interpolation-filters="sRGB"><feGaussianBlur xmlns="http://www.w3.org/2000/svg" in="SourceGraphic" stdDeviation="25.76165437703417"/><feOffset xmlns="http://www.w3.org/2000/svg" dx="0" dy="0" result="pf_100_offsetBlur"/><feFlood xmlns="http://www.w3.org/2000/svg" flood-color="#716E6E" flood-opacity="0.6"/><feComposite xmlns="http://www.w3.org/2000/svg" in2="pf_100_offsetBlur" operator="in" result="pf_100_dropShadow"/><feBlend xmlns="http://www.w3.org/2000/svg" in="SourceGraphic" in2="pf_100_dropShadow" mode="normal"/></filter></defs><g filter="url(#sitYZGNKAFhR2y4Q4fjyHcTiGwrPqSMA)"><path d=" M -1257.737 -2128.329 L -1327.686 -2128.329 L -1327.686 -2129.723 L -1327.686 -2129.723 Q -1325.362 -2135.3 -1324.316 -2144.015 L -1324.316 -2144.015 L -1324.316 -2144.015 Q -1323.27 -2152.729 -1323.27 -2172.018 L -1323.27 -2172.018 L -1323.27 -2247.311 L -1323.27 -2247.311 Q -1323.27 -2266.599 -1324.316 -2275.314 L -1324.316 -2275.314 L -1324.316 -2275.314 Q -1325.362 -2284.028 -1327.686 -2289.606 L -1327.686 -2289.606 L -1327.686 -2291 L -1275.631 -2291 L -1275.631 -2289.373 L -1275.631 -2289.373 Q -1279.349 -2283.099 -1280.976 -2273.571 L -1280.976 -2273.571 L -1280.976 -2273.571 Q -1282.602 -2264.043 -1282.602 -2242.896 L -1282.602 -2242.896 L -1282.602 -2185.031 L -1282.602 -2185.031 Q -1282.602 -2145.061 -1277.49 -2132.512 L -1277.49 -2132.512 L -1277.49 -2132.512 Q -1257.04 -2156.448 -1225.435 -2208.27 L -1225.435 -2208.27 L -1224.738 -2208.27 L -1227.759 -2126.005 L -1228.689 -2126.005 L -1228.689 -2126.005 Q -1239.843 -2128.329 -1257.737 -2128.329 L -1257.737 -2128.329 Z  M -1130.156 -2151.8 L -1129.459 -2150.87 L -1129.459 -2150.87 Q -1131.318 -2146.455 -1136.779 -2140.297 L -1136.779 -2140.297 L -1136.779 -2140.297 Q -1142.241 -2134.138 -1151.187 -2129.374 L -1151.187 -2129.374 L -1151.187 -2129.374 Q -1160.134 -2124.611 -1171.521 -2124.611 L -1171.521 -2124.611 L -1171.521 -2124.611 Q -1183.838 -2124.611 -1194.411 -2130.885 L -1194.411 -2130.885 L -1194.411 -2130.885 Q -1204.985 -2137.16 -1211.608 -2151.103 L -1211.608 -2151.103 L -1211.608 -2151.103 Q -1218.231 -2165.046 -1218.231 -2186.89 L -1218.231 -2186.89 L -1218.231 -2186.89 Q -1218.231 -2210.594 -1210.446 -2226.977 L -1210.446 -2226.977 L -1210.446 -2226.977 Q -1202.661 -2243.361 -1191.158 -2251.378 L -1191.158 -2251.378 L -1191.158 -2251.378 Q -1179.655 -2259.395 -1168.5 -2259.395 L -1168.5 -2259.395 L -1168.5 -2259.395 Q -1151.536 -2259.395 -1141.079 -2246.498 L -1141.079 -2246.498 L -1141.079 -2246.498 Q -1130.621 -2233.6 -1130.621 -2207.573 L -1130.621 -2207.573 L -1130.621 -2207.573 Q -1130.621 -2202.228 -1130.854 -2199.439 L -1130.854 -2199.439 L -1133.177 -2195.953 L -1181.282 -2199.672 L -1181.282 -2199.672 Q -1177.331 -2171.088 -1165.479 -2160.863 L -1165.479 -2160.863 L -1165.479 -2160.863 Q -1153.627 -2150.638 -1140.846 -2150.638 L -1140.846 -2150.638 L -1140.846 -2150.638 Q -1135.966 -2150.638 -1130.156 -2151.8 L -1130.156 -2151.8 Z  M -1181.746 -2251.262 L -1181.746 -2251.262 Q -1182.908 -2241.037 -1182.908 -2223.375 L -1182.908 -2223.375 L -1182.908 -2223.375 Q -1182.908 -2212.686 -1181.979 -2205.249 L -1181.979 -2205.249 L -1161.529 -2206.179 L -1161.529 -2206.179 Q -1161.296 -2219.657 -1166.525 -2232.438 L -1166.525 -2232.438 L -1166.525 -2232.438 Q -1171.754 -2245.22 -1181.746 -2251.262 L -1181.746 -2251.262 Z " fill="rgb(255,255,255)"/></g><defs><filter id="ToOVQf9GSc0SduOG4vx0q035GwVEa0Lr" x="-200%" y="-200%" width="400%" height="400%" filterUnits="objectBoundingBox" color-interpolation-filters="sRGB"><feGaussianBlur xmlns="http://www.w3.org/2000/svg" in="SourceGraphic" stdDeviation="8.587218125678056"/><feOffset xmlns="http://www.w3.org/2000/svg" dx="0" dy="0" result="pf_100_offsetBlur"/><feFlood xmlns="http://www.w3.org/2000/svg" flood-color="#716E6E" flood-opacity="0.6"/><feComposite xmlns="http://www.w3.org/2000/svg" in2="pf_100_offsetBlur" operator="in" result="pf_100_dropShadow"/><feBlend xmlns="http://www.w3.org/2000/svg" in="SourceGraphic" in2="pf_100_dropShadow" mode="normal"/></filter></defs><g filter="url(#ToOVQf9GSc0SduOG4vx0q035GwVEa0Lr)"><path d=" M -1194.632 -1929.514 Q -1186.736 -1918.688 -1177.621 -1909.013 L -1177.621 -1909.013 L -1177.621 -1909.013 Q -1158.74 -1888.97 -1129.111 -1862.245 L -1129.111 -1862.245 L -1129.111 -1862.245 Q -1063.461 -1802.986 -1063.461 -1751.861 L -1063.461 -1751.861 L -1063.461 -1751.861 Q -1063.461 -1741.404 -1065.495 -1728.041 L -1065.495 -1728.041 L -1065.495 -1728.041 Q -1067.528 -1714.679 -1070.433 -1707.708 L -1070.433 -1707.708 L -1070.433 -1707.708 Q -1091.348 -1729.203 -1124.753 -1769 L -1124.753 -1769 L -1124.753 -1769 Q -1158.159 -1808.796 -1186.046 -1843.654 L -1186.046 -1843.654 L -1188.369 -1843.654 L -1231.361 -1717.003 L -1231.361 -1717.003 Q -1207.541 -1707.127 -1172.974 -1699.865 L -1172.974 -1699.865 L -1172.974 -1699.865 Q -1138.406 -1692.602 -1100.643 -1692.602 L -1100.643 -1692.602 L -1100.643 -1692.602 Q -1062.299 -1692.602 -1035.865 -1708.87 L -1035.865 -1708.87 L -1035.865 -1708.87 Q -1009.431 -1725.137 -996.359 -1751.571 L -996.359 -1751.571 L -996.359 -1751.571 Q -983.288 -1778.005 -983.287 -1808.215 L -983.287 -1808.215 L -983.287 -1808.215 Q -983.288 -1839.006 -992.873 -1861.664 L -992.873 -1861.664 L -992.873 -1861.664 Q -1002.459 -1884.322 -1019.598 -1903.204 L -1019.598 -1903.204 L -1019.598 -1903.204 Q -1036.737 -1922.085 -1072.757 -1955.2 L -1072.757 -1955.2 L -1088.443 -1969.724 L -1088.443 -1969.724 Q -1118.072 -1997.611 -1130.854 -2020.269 L -1130.854 -2020.269 L -1130.854 -2020.269 Q -1143.635 -2042.926 -1143.635 -2070.232 L -1143.635 -2070.232 L -1143.635 -2070.232 Q -1143.635 -2087.08 -1139.568 -2097.537 L -1139.568 -2097.537 L -1139.568 -2097.537 Q -1097.157 -2057.451 -1029.184 -1970.305 L -1029.184 -1970.305 L -1026.86 -1970.305 L -990.259 -2096.957 L -990.259 -2096.957 Q -1012.917 -2106.252 -1041.675 -2110.319 L -1041.675 -2110.319 L -1041.675 -2110.319 Q -1070.433 -2114.386 -1093.672 -2114.386 L -1093.672 -2114.386 L -1093.672 -2114.386 Q -1129.692 -2114.386 -1159.611 -2100.733 L -1159.611 -2100.733 L -1159.611 -2100.733 Q -1188.236 -2087.671 -1205.162 -2064.506 Q -1239.502 -2105.09 -1322.864 -2105.09 L -1322.864 -2105.09 L -1454.162 -2105.09 L -1454.162 -2101.604 L -1454.162 -2101.604 Q -1448.353 -2087.661 -1445.738 -2065.875 L -1445.738 -2065.875 L -1445.738 -2065.875 Q -1443.124 -2044.088 -1443.124 -1995.868 L -1443.124 -1995.868 L -1443.124 -1807.634 L -1443.124 -1807.634 Q -1443.124 -1759.414 -1445.738 -1737.627 L -1445.738 -1737.627 L -1445.738 -1737.627 Q -1448.353 -1715.841 -1454.162 -1701.898 L -1454.162 -1701.898 L -1454.162 -1698.412 L -1324.607 -1698.412 L -1324.607 -1701.898 L -1324.607 -1701.898 Q -1333.902 -1715.841 -1337.678 -1737.337 L -1337.678 -1737.337 L -1337.678 -1737.337 Q -1341.455 -1758.833 -1341.455 -1807.634 L -1341.455 -1807.634 L -1341.455 -1969.143 L -1341.455 -1969.143 Q -1341.455 -2037.117 -1340.293 -2061.227 L -1340.293 -2061.227 L -1340.293 -2061.227 Q -1339.131 -2085.337 -1337.388 -2090.566 L -1337.388 -2090.566 L -1337.388 -2090.566 Q -1314.73 -2085.337 -1303.401 -2056.289 L -1303.401 -2056.289 L -1303.401 -2056.289 Q -1292.072 -2027.24 -1292.072 -1984.83 L -1292.072 -1984.83 L -1292.072 -1984.83 Q -1292.072 -1940.095 -1302.53 -1906.689 L -1302.53 -1906.689 L -1302.53 -1906.689 Q -1312.987 -1873.284 -1322.864 -1860.502 L -1322.864 -1860.502 L -1321.702 -1856.436 L -1321.702 -1856.436 Q -1249.081 -1863.988 -1215.094 -1900.589 L -1215.094 -1900.589 L -1215.094 -1900.589 Q -1202.547 -1914.101 -1194.632 -1929.514 Z " fill="rgb(255,255,255)"/></g></g></svg>